<?xml version="1.0" encoding="utf-8"?>
<!-- Generator: Adobe Illustrator 24.0.1, SVG Export Plug-In . SVG Version: 6.00 Build 0)  -->
<svg version="1.1" id="Layer_1" xmlns="http://www.w3.org/2000/svg" xmlns:xlink="http://www.w3.org/1999/xlink" x="0px" y="0px"
	 viewBox="0 0 595.3 841.9" style="enable-background:new 0 0 595.3 841.9;" xml:space="preserve">
<style type="text/css">
	.st0{fill:#010202;stroke:#000000;stroke-miterlimit:10;}
	.st1{fill:#FDFCF3;}
	.st2{fill:#040506;}
</style>
<polygon class="st0" points="191.6,327.6 123.7,209.9 191.6,92.3 327.5,92.3 395.4,209.9 327.5,327.6 "/>
<path class="st1" d="M336.4,214.9c4.8,0,8.8,3.4,8.8,7.7s-3.9,7.7-8.8,7.7h-10.2l-3.2,12.2c-0.9,3.6-4.5,6-8.5,6
	c-0.6,0-1.3-0.1-1.9-0.2c-4.7-0.9-7.7-5-6.6-9.2l2.3-8.9h-19l-3.2,12.2c-0.9,3.6-4.5,6-8.5,6c-0.6,0-1.3-0.1-1.9-0.2
	c-4.7-0.9-7.7-5-6.6-9.2l2.3-8.9c-4.7-0.1-8.5-3.5-8.5-7.7c0-4.2,3.9-7.7,8.8-7.7h3.7l2.6-9.9h-6.2c-4.8,0-8.8-3.4-8.8-7.7
	c0-4.2,3.9-7.7,8.8-7.7h10.2l3.2-12.2c1.1-4.1,5.8-6.7,10.5-5.8c4.7,0.9,7.7,5,6.6,9.2l-2.3,8.9h19l3.2-12.2
	c1.1-4.1,5.8-6.7,10.5-5.8c4.7,0.9,7.7,5,6.6,9.2l-2.3,8.9c4.7,0.1,8.5,3.5,8.5,7.7c0,4.2-3.9,7.7-8.8,7.7h-3.7l-2.6,9.9
	L336.4,214.9L336.4,214.9z M254,240.4c-8.9,6.8-20.3,10.6-32.1,10.6c-26.4,0-47.9-18.4-47.9-41c0-22.6,21.5-40.9,47.9-40.9
	c11.8,0,23.1,3.7,32,10.5c3.6,2.8,4,7.6,0.8,10.8c-3.2,3.2-8.7,3.5-12.4,0.7c-5.6-4.3-12.9-6.7-20.4-6.7
	c-16.8,0-30.4,11.5-30.4,25.6c0,14.2,13.6,25.7,30.4,25.7c7.5,0,14.8-2.4,20.5-6.8c3.6-2.8,9.2-2.5,12.4,0.7
	C258,232.7,257.6,237.6,254,240.4z"/>
<polyline class="st2" points="291.6,216.1 294.2,203.8 316.3,203.8 313.9,216.1 "/>
</svg>
