<?xml version="1.0" encoding="utf-8"?>
<!-- Generator: Adobe Illustrator 24.0.1, SVG Export Plug-In . SVG Version: 6.00 Build 0)  -->
<svg version="1.1" id="Layer_1" xmlns="http://www.w3.org/2000/svg" xmlns:xlink="http://www.w3.org/1999/xlink" x="0px" y="0px"
	 viewBox="0 0 595.3 841.9" style="enable-background:new 0 0 595.3 841.9;" xml:space="preserve">
<style type="text/css">
	.st0{fill:#010202;stroke:#000000;stroke-miterlimit:10;}
	.st1{fill:#F8F7F6;}
</style>
<polygon class="st0" points="167.2,329.4 99.3,211.8 167.2,94.2 303,94.2 370.9,211.8 303,329.4 "/>
<g>
	<ellipse class="st1" cx="235.1" cy="172.1" rx="63.3" ry="13.2"/>
	<path class="st1" d="M235.1,194.2c-35,0-63.3-5.9-63.3-13.2v17.7c0,7.3,28.3,13.2,63.3,13.2s63.3-5.9,63.3-13.2v-17.7
		C298.4,188.2,270.1,194.2,235.1,194.2z"/>
	<path class="st1" d="M235.1,220.6c-35,0-63.3-5.9-63.3-13.2v17.7c0,7.3,28.3,13.2,63.3,13.2s63.3-5.9,63.3-13.2v-17.7
		C298.4,214.7,270.1,220.6,235.1,220.6z"/>
	<path class="st1" d="M235.1,247.1c-35,0-63.3-5.9-63.3-13.2v17.7c0,7.3,28.3,13.2,63.3,13.2s63.3-5.9,63.3-13.2v-17.7
		C298.4,241.2,270.1,247.1,235.1,247.1z"/>
</g>
</svg>
