<?xml version="1.0" encoding="utf-8"?>
<!-- Generator: Adobe Illustrator 24.0.1, SVG Export Plug-In . SVG Version: 6.00 Build 0)  -->
<svg version="1.1" id="Layer_1" xmlns="http://www.w3.org/2000/svg" xmlns:xlink="http://www.w3.org/1999/xlink" x="0px" y="0px"
	 viewBox="0 0 595.3 841.9" style="enable-background:new 0 0 595.3 841.9;" xml:space="preserve">
<style type="text/css">
	.st0{fill:#010202;stroke:#000000;stroke-miterlimit:10;}
	.st1{fill:#FDFDF8;}
</style>
<polygon class="st0" points="230,538.5 162.1,420.9 230,303.3 365.8,303.3 433.7,420.9 365.8,538.5 "/>
<polygon class="st0" points="230,538.5 162.1,420.9 230,303.3 365.8,303.3 433.7,420.9 365.8,538.5 "/>
<g>
	<g>
		<g>
			<path class="st1" d="M325.7,396.1c-1-0.9-2.7-0.9-3.7,0l-49.7,46.2c-0.6,0.6-0.9,1.3-0.7,2.1c0.1,0.8,0.7,1.4,1.4,1.8l4.1,1.9
				v6.4l-12.5,3.3l-12.6-11.7l3.6-11.6h6.9l2,3.8c0.4,0.7,1.1,1.2,1.9,1.3c0.1,0,0.3,0,0.4,0c0.7,0,1.4-0.3,1.8-0.7l49.7-46.2
				c0.5-0.5,0.8-1.1,0.8-1.7c0-0.6-0.3-1.3-0.8-1.7l-9.6-8.9c-0.5-0.5-1.2-0.7-1.8-0.7h0c-0.7,0-1.4,0.3-1.9,0.7l-53.4,50
				c0,0,0,0.1,0,0.1c-0.3,0.3-0.5,0.6-0.6,1l-4.5,14.8l-5.9,19.3c-0.3,0.8,0,1.8,0.7,2.4c0.5,0.5,1.2,0.7,1.8,0.7
				c0.2,0,0.5,0,0.7-0.1l20.7-5.5l15.9-4.2c0,0,0.1,0,0.1-0.1c0.2-0.1,0.3-0.1,0.5-0.2c0.1-0.1,0.3-0.2,0.4-0.3c0,0,0.1,0,0.1-0.1
				l53.8-49.6c0.5-0.5,0.8-1.1,0.8-1.7c0-0.6-0.3-1.3-0.8-1.7L325.7,396.1z"/>
			<path class="st1" d="M352.4,379l-15.7-14.6c-4-3.7-10.8-3.7-14.8,0l-9.6,9c-1,1-1,2.5,0,3.4l26.7,24.8c0.5,0.5,1.2,0.7,1.8,0.7
				c0.7,0,1.3-0.2,1.8-0.7l9.7-8.9c2-1.8,3.1-4.3,3.1-6.9S354.4,380.8,352.4,379z"/>
		</g>
	</g>
</g>
</svg>
