<?xml version="1.0" encoding="utf-8"?>
<!-- Generator: Adobe Illustrator 24.0.1, SVG Export Plug-In . SVG Version: 6.00 Build 0)  -->
<svg version="1.1" id="Layer_1" xmlns="http://www.w3.org/2000/svg" xmlns:xlink="http://www.w3.org/1999/xlink" x="0px" y="0px"
	 viewBox="0 0 1600 230" style="enable-background:new 0 0 1600 230;" xml:space="preserve">
<style type="text/css">
	.st0{fill:none;}
	.st1{fill:#949494;}
	.st2{fill:none;stroke:#050506;stroke-width:0.5;stroke-miterlimit:10;}
	.st3{fill:#030304;stroke:#050506;stroke-width:0.5;stroke-miterlimit:10;}
	.st4{fill:#BCBCBB;stroke:#050506;stroke-width:0.5;stroke-miterlimit:10;}
	.st5{fill:none;stroke:#020203;stroke-width:0.5;stroke-linecap:round;stroke-linejoin:round;}
	.st6{fill:#030304;stroke:#020203;stroke-width:0.5;stroke-miterlimit:10;}
	.st7{fill:none;stroke:#020203;stroke-width:0.5;stroke-miterlimit:10;}
	.st8{fill:none;stroke:#020203;stroke-width:0.5;stroke-linecap:round;stroke-miterlimit:10;}
	.st9{fill:url(#SVGID_1_);stroke:#050506;stroke-width:0.5;stroke-miterlimit:10;}
	.st10{fill:#FFFFFF;stroke:#050506;stroke-width:0.5;stroke-miterlimit:10;}
	.st11{fill:#DFDFDF;stroke:#050506;stroke-width:0.5;stroke-miterlimit:10;}
	.st12{fill:url(#SVGID_2_);stroke:#020203;stroke-width:0.5;stroke-miterlimit:10;}
	.st13{fill:#FAFAFA;stroke:#020203;stroke-width:0.5;stroke-miterlimit:10;}
	.st14{fill:url(#SVGID_3_);stroke:#020203;stroke-width:0.5;stroke-miterlimit:10;}
	.st15{fill:#D3D3D3;stroke:#020203;stroke-width:0.5;stroke-miterlimit:10;}
	.st16{fill:none;stroke:#040405;stroke-width:0.5;stroke-miterlimit:10;}
	.st17{fill:#030304;stroke:#040405;stroke-width:0.5;stroke-miterlimit:10;}
	.st18{opacity:0.27;fill:#030304;stroke:#040405;stroke-width:0.5;stroke-miterlimit:10;enable-background:new    ;}
	.st19{fill:#FBC78F;stroke:#040405;stroke-width:0.5;stroke-miterlimit:10;}
	.st20{fill:url(#SVGID_4_);stroke:#040505;stroke-width:0.5;stroke-miterlimit:10;}
	.st21{fill:url(#SVGID_5_);stroke:#040505;stroke-width:0.5;stroke-miterlimit:10;}
	.st22{fill:#030304;stroke:#040505;stroke-width:0.5;stroke-miterlimit:10;}
	.st23{fill:none;stroke:#040505;stroke-width:0.5;stroke-miterlimit:10;}
	.st24{fill:#343434;stroke:#040505;stroke-width:0.5;stroke-miterlimit:10;}
	.st25{fill-rule:evenodd;clip-rule:evenodd;fill:url(#SVGID_6_);stroke:#020203;stroke-width:0.5;stroke-miterlimit:10;}
	.st26{fill-rule:evenodd;clip-rule:evenodd;fill:#FFE5B0;stroke:#020203;stroke-width:0.5;stroke-miterlimit:10;}
	.st27{fill-rule:evenodd;clip-rule:evenodd;fill:url(#SVGID_7_);stroke:#020203;stroke-width:0.5;stroke-miterlimit:10;}
	.st28{fill-rule:evenodd;clip-rule:evenodd;fill:url(#SVGID_8_);stroke:#020203;stroke-width:0.5;stroke-miterlimit:10;}
	.st29{fill-rule:evenodd;clip-rule:evenodd;fill:url(#SVGID_9_);stroke:#020203;stroke-width:0.5;stroke-miterlimit:10;}
	.st30{fill-rule:evenodd;clip-rule:evenodd;fill:#030304;stroke:#020203;stroke-width:0.5;stroke-miterlimit:10;}
	.st31{fill-rule:evenodd;clip-rule:evenodd;fill:url(#SVGID_22_);stroke:#030304;stroke-width:0.5;stroke-miterlimit:10;}
	.st32{fill-rule:evenodd;clip-rule:evenodd;fill:url(#SVGID_23_);stroke:#030304;stroke-width:0.5;stroke-miterlimit:10;}
	.st33{fill-rule:evenodd;clip-rule:evenodd;fill:url(#SVGID_24_);stroke:#030304;stroke-width:0.5;stroke-miterlimit:10;}
	.st34{fill-rule:evenodd;clip-rule:evenodd;fill:#030304;stroke:#030304;stroke-width:0.5;stroke-miterlimit:10;}
	.st35{fill:none;stroke:#030304;stroke-width:0.5;stroke-miterlimit:10;}
	.st36{fill-rule:evenodd;clip-rule:evenodd;fill:#232323;stroke:#030304;stroke-width:0.5;stroke-miterlimit:10;}
	.st37{fill-rule:evenodd;clip-rule:evenodd;fill:#494949;stroke:#030304;stroke-width:0.5;stroke-miterlimit:10;}
	.st38{fill:#DFDFDF;stroke:#020203;stroke-width:0.5;stroke-miterlimit:10;}
	.st39{fill:#F2F2F2;stroke:#020203;stroke-width:0.5;stroke-miterlimit:10;}
	.st40{fill:#FFFFFF;stroke:#020203;stroke-width:0.5;stroke-miterlimit:10;}
	.st41{fill:#FFFFFF;}
	.st42{fill:url(#SVGID_25_);stroke:#000000;stroke-width:0.5;stroke-miterlimit:10;}
	.st43{fill:url(#SVGID_26_);stroke:#000000;stroke-width:0.5;stroke-miterlimit:10;}
	.st44{fill:url(#SVGID_27_);stroke:#000000;stroke-width:0.5;stroke-miterlimit:10;}
	.st45{fill:#F2F2F2;stroke:#000000;stroke-width:0.5;stroke-miterlimit:10;}
	.st46{fill:#020203;stroke:#000000;stroke-width:0.5;stroke-miterlimit:10;}
	.st47{fill:none;stroke:#000000;stroke-width:0.5;stroke-miterlimit:10;}
	.st48{fill:#F1F1F1;stroke:#000000;stroke-width:0.5;stroke-miterlimit:10;}
	.st49{fill:none;stroke:#000000;stroke-width:0.5;stroke-linecap:round;stroke-linejoin:round;}
</style>
<pattern  width="12" height="12" patternUnits="userSpaceOnUse" id="New_Pattern" viewBox="2 -14 12 12" style="overflow:visible;">
	<g>
		<rect x="2" y="-14" class="st0" width="12" height="12"/>
		<rect x="2" y="-14" class="st0" width="12" height="12"/>
		<rect x="2" y="-14" class="st0" width="12" height="12"/>
		<circle class="st1" cx="14" cy="-5" r="2"/>
		<circle class="st1" cx="8" cy="-2" r="2"/>
		<circle class="st1" cx="2" cy="-5" r="2"/>
		<circle class="st1" cx="14" cy="-11" r="2"/>
		<circle class="st1" cx="8" cy="-8" r="2"/>
		<circle class="st1" cx="2" cy="-11" r="2"/>
		<circle class="st1" cx="8" cy="-14" r="2"/>
	</g>
</pattern>
<pattern  width="12" height="12" patternUnits="userSpaceOnUse" id="SVGID_10_" viewBox="2 -14 12 12" style="overflow:visible;">
	<g>
		<rect x="2" y="-14" class="st0" width="12" height="12"/>
		<g>
			<rect x="2" y="-14" class="st0" width="12" height="12"/>
			<g>
				<rect x="2" y="-14" class="st0" width="12" height="12"/>
				<rect x="2" y="-14" class="st0" width="12" height="12"/>
				<rect x="2" y="-14" class="st0" width="12" height="12"/>
				<circle class="st1" cx="14" cy="-5" r="2"/>
				<circle class="st1" cx="8" cy="-2" r="2"/>
				<circle class="st1" cx="2" cy="-5" r="2"/>
				<circle class="st1" cx="14" cy="-11" r="2"/>
				<circle class="st1" cx="8" cy="-8" r="2"/>
				<circle class="st1" cx="2" cy="-11" r="2"/>
				<circle class="st1" cx="8" cy="-14" r="2"/>
			</g>
		</g>
	</g>
</pattern>
<pattern  width="12" height="12" patternUnits="userSpaceOnUse" id="SVGID_11_" viewBox="2 -14 12 12" style="overflow:visible;">
	<g>
		<rect x="2" y="-14" class="st0" width="12" height="12"/>
		<g>
			<rect x="2" y="-14" class="st0" width="12" height="12"/>
			<g>
				<rect x="2" y="-14" class="st0" width="12" height="12"/>
				<rect x="2" y="-14" class="st0" width="12" height="12"/>
				<rect x="2" y="-14" class="st0" width="12" height="12"/>
				<circle class="st1" cx="14" cy="-5" r="2"/>
				<circle class="st1" cx="8" cy="-2" r="2"/>
				<circle class="st1" cx="2" cy="-5" r="2"/>
				<circle class="st1" cx="14" cy="-11" r="2"/>
				<circle class="st1" cx="8" cy="-8" r="2"/>
				<circle class="st1" cx="2" cy="-11" r="2"/>
				<circle class="st1" cx="8" cy="-14" r="2"/>
			</g>
		</g>
	</g>
</pattern>
<pattern  width="12" height="12" patternUnits="userSpaceOnUse" id="SVGID_12_" viewBox="2 -14 12 12" style="overflow:visible;">
	<g>
		<rect x="2" y="-14" class="st0" width="12" height="12"/>
		<g>
			<rect x="2" y="-14" class="st0" width="12" height="12"/>
			<g>
				<rect x="2" y="-14" class="st0" width="12" height="12"/>
				<rect x="2" y="-14" class="st0" width="12" height="12"/>
				<rect x="2" y="-14" class="st0" width="12" height="12"/>
				<circle class="st1" cx="14" cy="-5" r="2"/>
				<circle class="st1" cx="8" cy="-2" r="2"/>
				<circle class="st1" cx="2" cy="-5" r="2"/>
				<circle class="st1" cx="14" cy="-11" r="2"/>
				<circle class="st1" cx="8" cy="-8" r="2"/>
				<circle class="st1" cx="2" cy="-11" r="2"/>
				<circle class="st1" cx="8" cy="-14" r="2"/>
			</g>
		</g>
	</g>
</pattern>
<pattern  width="12" height="12" patternUnits="userSpaceOnUse" id="SVGID_13_" viewBox="2 -14 12 12" style="overflow:visible;">
	<g>
		<rect x="2" y="-14" class="st0" width="12" height="12"/>
		<g>
			<rect x="2" y="-14" class="st0" width="12" height="12"/>
			<g>
				<rect x="2" y="-14" class="st0" width="12" height="12"/>
				<rect x="2" y="-14" class="st0" width="12" height="12"/>
				<circle class="st1" cx="14" cy="-11" r="2"/>
				<circle class="st1" cx="8" cy="-14" r="2"/>
				<circle class="st1" cx="2" cy="-11" r="2"/>
				<circle class="st1" cx="14" cy="-5" r="2"/>
				<circle class="st1" cx="8" cy="-8" r="2"/>
				<circle class="st1" cx="2" cy="-5" r="2"/>
				<circle class="st1" cx="8" cy="-2" r="2"/>
			</g>
		</g>
	</g>
</pattern>
<pattern  width="12" height="12" patternUnits="userSpaceOnUse" id="SVGID_14_" viewBox="2 -14 12 12" style="overflow:visible;">
	<g>
		<rect x="2" y="-14" class="st0" width="12" height="12"/>
		<g>
			<rect x="2" y="-14" class="st0" width="12" height="12"/>
			<g>
				<rect x="2" y="-14" class="st0" width="12" height="12"/>
				<rect x="2" y="-14" class="st0" width="12" height="12"/>
				<circle class="st1" cx="14" cy="-11" r="2"/>
				<circle class="st1" cx="8" cy="-14" r="2"/>
				<circle class="st1" cx="2" cy="-11" r="2"/>
				<circle class="st1" cx="14" cy="-5" r="2"/>
				<circle class="st1" cx="8" cy="-8" r="2"/>
				<circle class="st1" cx="2" cy="-5" r="2"/>
				<circle class="st1" cx="8" cy="-2" r="2"/>
			</g>
		</g>
	</g>
</pattern>
<pattern  width="12" height="12" patternUnits="userSpaceOnUse" id="SVGID_15_" viewBox="2 -14 12 12" style="overflow:visible;">
	<g>
		<rect x="2" y="-14" class="st0" width="12" height="12"/>
		<g>
			<rect x="2" y="-14" class="st0" width="12" height="12"/>
			<g>
				<rect x="2" y="-14" class="st0" width="12" height="12"/>
				<rect x="2" y="-14" class="st0" width="12" height="12"/>
				<rect x="2" y="-14" class="st0" width="12" height="12"/>
				<circle class="st1" cx="14" cy="-5" r="2"/>
				<circle class="st1" cx="8" cy="-2" r="2"/>
				<circle class="st1" cx="2" cy="-5" r="2"/>
				<circle class="st1" cx="14" cy="-11" r="2"/>
				<circle class="st1" cx="8" cy="-8" r="2"/>
				<circle class="st1" cx="2" cy="-11" r="2"/>
				<circle class="st1" cx="8" cy="-14" r="2"/>
			</g>
		</g>
	</g>
</pattern>
<pattern  width="12" height="12" patternUnits="userSpaceOnUse" id="SVGID_16_" viewBox="2 -14 12 12" style="overflow:visible;">
	<g>
		<rect x="2" y="-14" class="st0" width="12" height="12"/>
		<g>
			<rect x="2" y="-14" class="st0" width="12" height="12"/>
			<g>
				<rect x="2" y="-14" class="st0" width="12" height="12"/>
				<rect x="2" y="-14" class="st0" width="12" height="12"/>
				<rect x="2" y="-14" class="st0" width="12" height="12"/>
				<circle class="st1" cx="14" cy="-5" r="2"/>
				<circle class="st1" cx="8" cy="-2" r="2"/>
				<circle class="st1" cx="2" cy="-5" r="2"/>
				<circle class="st1" cx="14" cy="-11" r="2"/>
				<circle class="st1" cx="8" cy="-8" r="2"/>
				<circle class="st1" cx="2" cy="-11" r="2"/>
				<circle class="st1" cx="8" cy="-14" r="2"/>
			</g>
		</g>
	</g>
</pattern>
<pattern  width="12" height="12" patternUnits="userSpaceOnUse" id="SVGID_17_" viewBox="2 -14 12 12" style="overflow:visible;">
	<g>
		<rect x="2" y="-14" class="st0" width="12" height="12"/>
		<g>
			<rect x="2" y="-14" class="st0" width="12" height="12"/>
			<g>
				<rect x="2" y="-14" class="st0" width="12" height="12"/>
				<rect x="2" y="-14" class="st0" width="12" height="12"/>
				<rect x="2" y="-14" class="st0" width="12" height="12"/>
				<circle class="st1" cx="14" cy="-5" r="2"/>
				<circle class="st1" cx="8" cy="-2" r="2"/>
				<circle class="st1" cx="2" cy="-5" r="2"/>
				<circle class="st1" cx="14" cy="-11" r="2"/>
				<circle class="st1" cx="8" cy="-8" r="2"/>
				<circle class="st1" cx="2" cy="-11" r="2"/>
				<circle class="st1" cx="8" cy="-14" r="2"/>
			</g>
		</g>
	</g>
</pattern>
<pattern  width="12" height="12" patternUnits="userSpaceOnUse" id="SVGID_18_" viewBox="2 -14 12 12" style="overflow:visible;">
	<g>
		<rect x="2" y="-14" class="st0" width="12" height="12"/>
		<g>
			<rect x="2" y="-14" class="st0" width="12" height="12"/>
			<g>
				<rect x="2" y="-14" class="st0" width="12" height="12"/>
				<rect x="2" y="-14" class="st0" width="12" height="12"/>
				<rect x="2" y="-14" class="st0" width="12" height="12"/>
				<circle class="st1" cx="14" cy="-5" r="2"/>
				<circle class="st1" cx="8" cy="-2" r="2"/>
				<circle class="st1" cx="2" cy="-5" r="2"/>
				<circle class="st1" cx="14" cy="-11" r="2"/>
				<circle class="st1" cx="8" cy="-8" r="2"/>
				<circle class="st1" cx="2" cy="-11" r="2"/>
				<circle class="st1" cx="8" cy="-14" r="2"/>
			</g>
		</g>
	</g>
</pattern>
<pattern  width="12" height="12" patternUnits="userSpaceOnUse" id="SVGID_19_" viewBox="2 -14 12 12" style="overflow:visible;">
	<g>
		<rect x="2" y="-14" class="st0" width="12" height="12"/>
		<g>
			<rect x="2" y="-14" class="st0" width="12" height="12"/>
			<g>
				<rect x="2" y="-14" class="st0" width="12" height="12"/>
				<rect x="2" y="-14" class="st0" width="12" height="12"/>
				<rect x="2" y="-14" class="st0" width="12" height="12"/>
				<circle class="st1" cx="14" cy="-5" r="2"/>
				<circle class="st1" cx="8" cy="-2" r="2"/>
				<circle class="st1" cx="2" cy="-5" r="2"/>
				<circle class="st1" cx="14" cy="-11" r="2"/>
				<circle class="st1" cx="8" cy="-8" r="2"/>
				<circle class="st1" cx="2" cy="-11" r="2"/>
				<circle class="st1" cx="8" cy="-14" r="2"/>
			</g>
		</g>
	</g>
</pattern>
<pattern  width="12" height="12" patternUnits="userSpaceOnUse" id="SVGID_20_" viewBox="2 -14 12 12" style="overflow:visible;">
	<g>
		<rect x="2" y="-14" class="st0" width="12" height="12"/>
		<g>
			<rect x="2" y="-14" class="st0" width="12" height="12"/>
			<g>
				<rect x="2" y="-14" class="st0" width="12" height="12"/>
				<rect x="2" y="-14" class="st0" width="12" height="12"/>
				<rect x="2" y="-14" class="st0" width="12" height="12"/>
				<circle class="st1" cx="14" cy="-5" r="2"/>
				<circle class="st1" cx="8" cy="-2" r="2"/>
				<circle class="st1" cx="2" cy="-5" r="2"/>
				<circle class="st1" cx="14" cy="-11" r="2"/>
				<circle class="st1" cx="8" cy="-8" r="2"/>
				<circle class="st1" cx="2" cy="-11" r="2"/>
				<circle class="st1" cx="8" cy="-14" r="2"/>
			</g>
		</g>
	</g>
</pattern>
<pattern  width="12" height="12" patternUnits="userSpaceOnUse" id="SVGID_21_" viewBox="2 -14 12 12" style="overflow:visible;">
	<g>
		<rect x="2" y="-14" class="st0" width="12" height="12"/>
		<g>
			<rect x="2" y="-14" class="st0" width="12" height="12"/>
			<g>
				<rect x="2" y="-14" class="st0" width="12" height="12"/>
				<rect x="2" y="-14" class="st0" width="12" height="12"/>
				<rect x="2" y="-14" class="st0" width="12" height="12"/>
				<circle class="st1" cx="14" cy="-5" r="2"/>
				<circle class="st1" cx="8" cy="-2" r="2"/>
				<circle class="st1" cx="2" cy="-5" r="2"/>
				<circle class="st1" cx="14" cy="-11" r="2"/>
				<circle class="st1" cx="8" cy="-8" r="2"/>
				<circle class="st1" cx="2" cy="-11" r="2"/>
				<circle class="st1" cx="8" cy="-14" r="2"/>
			</g>
		</g>
	</g>
</pattern>
<g id="Vector">
	<polyline class="st2" points="440.7,221.6 440.7,228.7 461.6,228.7 461.6,225.6 447.4,221.3 	"/>
	<polyline class="st2" points="353,219.1 353,223.6 355.3,226.1 360.6,226.1 362.7,229.3 348.8,229.3 343.5,220.7 346.9,216 	"/>
	<path class="st3" d="M423,114.7c0,0,26.1,40.1,28.4,48.7s-3.3,58.3-3.3,58.3h-7.7c0,0-5.8-35.7-4.2-48.3
		c-5.8-3.6-31-20.1-33.1-28.5"/>
	<path class="st3" d="M382.7,110.2l-6.2,57.2l-30.1,48.3l6.5,4.4l44.4-49.7c0,0,23.1-49.4,25.6-55.6
		C418.3,116.3,391,119.2,382.7,110.2z"/>
	<rect x="321.1" y="134.9" class="st4" width="61.8" height="33.8"/>
	<path class="st2" d="M357.2,127.3c4.3,2.9,5.4,8.9,2.5,13.3c-2.9,4.4-8.7,5.6-12.9,2.6c-4.3-2.9-5.4-8.9-2.5-13.3
		c1-1.5,2.3-2.6,3.9-3.4"/>
	<path class="st2" d="M377.6,63.2C374,67.2,363.1,79,360,86c-3.7,8.2-4.9,18-6.3,22.5c-1.7,5.8-5.9,12.7-5.9,16.5
		c0,2,2.3,5.1,3.9,5.1s5.8-0.3,6.6-6.3c1.4-9.5,7.5-24.6,9.9-27.8c2.1-2.6,16.3-18,21.5-24"/>
	<path class="st2" d="M425.1,43.1c7.2,4.9,17,22.3,15,24.2c-1.2,1.1-4.8,2.9-8.8,4.4"/>
	<path class="st2" d="M420.5,39.4c20.5,11.5,5.9,63.6,2.5,75.4c-6.5,3-37.8,1.8-40.3-4.5c-0.5-3.5,0.1-18.5,3.3-34"/>
	<path class="st2" d="M400.7,42.2c2.8-2.6,5.9-4.4,9.4-4.9"/>
	<path class="st2" d="M416.4,35.4c0.4,0.1,0.8,0.1,1.2,0.1c5.6,0,10.1-7.3,10.1-16.3c0-1.7-0.1-3.4-0.5-5.1"/>
	<path class="st2" d="M424.5,12.7c0.8-0.7,1.2-1.8,1.3-2.9c0.5,1,1.3,3.6,1.4,4.4c0.6-0.8,1.8-2.1,1.8-4.5c0-4.9-3.7-9-11.8-9
		c-3.5,0-11.7,2.8-15.2,2.8c-9.7,0-9.4-3.5-19.3-3.5c-5.2,0-11,3.5-17.6,6.4c-6.9,3-15.9,2.5-15.9,15.2c0,4.3,1.3,18.1,15.6,18.1
		c10.4,0,20.5-9.6,30.1-9.6c4,0,7,1.1,10.4,1.1c2.1,0,4.5-0.4,5.2-1.1v-6c0,0-0.5,0.4-2.1,0.4c-0.6,0-1.1-0.5-1.3-1.5"/>
	<path class="st2" d="M401.3,42.5c6.2,3.9-4.1,31.8-7.5,31.2s-16.9-8.8-16.9-12.2S394.9,38.5,401.3,42.5z"/>
	<path class="st2" d="M429.3,87.6c0.8,1.7,1.8,3.3,2.7,4c10.9,9,31.5,18.9,32.9,19.5c0.8,0.4,2.4,1.6,3.4,2.4
		c0.8,2.3,3.3,3.4,5.4,2.6s3.4-3.3,2.5-5.6c-0.6-1.7-2.1-2.8-3.9-2.9c-0.7-0.2-2.1-0.6-4.6-2.1c-2.5-1.5-22.8-18.4-26.3-20.3
		c0.1-5.4-1.6-14.5-2.5-17.4"/>
	<path class="st2" d="M410.2,37.4v6.5c0,0.7,3,1,4.2,1"/>
	<path class="st2" d="M410.2,30v7.3"/>
	<line class="st2" x1="420.4" y1="35.1" x2="420.4" y2="39.2"/>
</g>
<g id="Vector_1_">
	<path class="st5" d="M1186.8,170.3l17.5-87.4l-23.3-0.1l-1.5,6.1c5.3,11.3,8.3,33.4,8.4,39.9c0.1,3.7,0.5,14.2-1.3,14.8
		c-3.7,1.3-14.5-1.4-19.6-4.9l-5.9,23.6"/>
	<path class="st6" d="M1169.8,58.1l-2,4.5c0.9-0.9,1.8-1.5,3-0.7c2.4,1.6,1.2,5.6,0.5,6.8c-0.7,1.1-2.7,4.1-3,5.3l1.5,1.2l5.7-12.6
		L1169.8,58.1z"/>
	<path class="st5" d="M1161,170.3l-10.7,54"/>
	<path class="st5" d="M1142.5,169.4l-10.9,54.8"/>
	<path class="st5" d="M1186.8,170.3h-32.5"/>
	<path class="st6" d="M1165.5,143.4c0-2.3-6.2-4.2-10.1-4.2c-3.8,0-20.6,3-23.8,7.8c-1.5,9.6,6.4,61.9,8.2,65.1
		c0.8,0.8,3.3,0.9,3.9,0.2s2.6-23.9,2.3-29.2s3.2-24.6,3.2-24.6S1165.5,145.7,1165.5,143.4z"/>
	<path class="st5" d="M1164,87c1.1-1.1,2.3-2.1,3.5-2.9"/>
	<path class="st5" d="M1175.9,83.6c7.5,7,11.8,37.5,12,45.3c0.1,3.7,0.5,14.2-1.3,14.8c-4.4,1.6-18.3-2.4-21.7-6.7
		c-0.9-1-3.6-10.6-5.1-21.3"/>
	<path class="st5" d="M1167.5,84.1c0-2.2,0-5.3,0-7.3"/>
	<path class="st5" d="M1176.3,68.3c-0.1,0.9-0.4,16.1-0.3,17c-0.8,1.1-2.7,1.5-4.6,1.5"/>
	<path class="st5" d="M1176.1,60.2c1.2,0.1,2.2,1.5,2.2,3.2c0,1.7-1.2,2.9-2.4,2.9c-0.3,0-0.7-0.1-1-0.3"/>
	<path class="st5" d="M1162.8,70.3c-1.3-2.8-2.1-6.5-2.1-10.5c0-2.4,0.3-4.8,0.9-7.1"/>
	<path class="st5" d="M1171.4,75.1c-0.7,0.3-1.4,0.5-2.1,0.5c-0.4,0-0.9-0.1-1.2-0.2"/>
	<path class="st5" d="M1177,65.9c-0.2,0.8-0.5,1.7-0.8,2.5"/>
	<path class="st7" d="M1056.3,41.1c-1.6,0.3-3.2,0.5-4.8,0.5c-0.8,0-1.7,0-2.8-0.1"/>
	<path class="st7" d="M1034,36.5c-5.1-3.3-9.3-8.6-10.3-16.7c-0.3-13.5,8.7-19.8,20.4-19.9c14.4-0.1,27.4,8.5,37.6,8.5
		c10.2,0,7.7-3.4,22.4-3.6c10.5-0.1,15.6,6.9,15.5,18c0.1,11.5-8.6,16.8-17.5,16.8s-19.6-3.2-26.7-3.2c-2.7,0-5.6,0.8-8.7,1.7"/>
	<path class="st8" d="M1069.7,56.6c-0.6-0.2-1.2-0.3-1.8-0.4"/>
	<path class="st8" d="M1051.6,35.3c4.7,5.4,13.4,17.3,18.2,21.3"/>
	<path class="st8" d="M1066.6,38.1c-5.9-5.4-11.6-9-14.2-10.1"/>
	<path class="st8" d="M1062.2,70.8c4.3,1.2,17.2,3.6,24.1-2c-2.5-12.4-11.4-23.2-19.6-30.7"/>
	<path class="st5" d="M1068,56.2c-0.6,4.4-5.5,15.7-7.3,16.2c-0.3,0-0.6,0-1-0.1"/>
	<path class="st8" d="M1052,50.2c5.5,0,12.2,2.1,14.7,3.6"/>
	<path class="st7" d="M1033.6,48c0.8-0.8,1.8-1.6,2.8-2.2"/>
	<path class="st5" d="M1026.9,94.3c-0.7-3.5-1.2-6.8-1.6-9.9"/>
	<path class="st5" d="M1046.7,45c12.4,6.8,18.2,43.8,10.7,55.5c-6,0.8-21.3,0.8-26.8-1.5"/>
	<path class="st7" d="M1031.6,75.1c-1.3,2.3-3.5,6.3-5.4,9.4"/>
	<path class="st5" d="M1024.1,87.5c3.7,6.4,11.6,22.3,12.3,24.2c-0.6,2.1-1.3,4.2-3.4,6.1c-1.8-1.1-19.1-21.1-20.6-27.4
		c-1.2-5.2,3.8-18.5,6.3-24"/>
	<path class="st5" d="M1025.3,84.4c-0.7,1.2-1.4,2.3-1.9,3.1"/>
	<path class="st5" d="M1046.7,45c0-0.7,0-1.3-0.1-1.7"/>
	<path class="st8" d="M1038.4,50.7c1.7,0.2,3.5,0.2,5.3,0"/>
	<path class="st7" d="M1035.9,40.1c0.1,0.8,0.5,6,0.7,8.7"/>
	<path class="st5" d="M1034.8,73c-0.6,1.3-1.3,2.1-1.6,2.3c-1.9,0.9-14.9-7.9-15.1-10.2c-0.3-2.3,10.4-21.2,18.6-16.2"/>
	<path class="st5" d="M1038.4,50.7c0.7,1.4,1.1,3.2,1.1,5.2"/>
	<path class="st6" d="M1051.6,22.8c0.3,1.2,0.5,2.5,0.6,3.8c0.2,2.6,0.1,5.3-0.4,7.9l2.8,2.6l5.2-6.6L1051.6,22.8z"/>
	<path class="st7" d="M1036.6,48.8l0.2,0.1c0.6,0.4,1.3,1,1.6,1.8"/>
	<path class="st5" d="M1048.6,41.5c2.7-3.2,4.2-8.8,3.6-14.9c-0.3-2.9-1.1-5.6-2.2-8.2c-1,1.1-1.9,2.1-2.9,3.1"/>
	<path class="st5" d="M1034,36.5c2.2,5.1,5.8,8.3,9.8,7.8c1.9-0.2,3.5-1.3,4.9-2.9"/>
	<path class="st5" d="M1032.5,31.7c0.3,1.7,0.8,3.3,1.5,4.9"/>
	<path class="st5" d="M1035.7,30.1c-1.1,0.6-2.1,1.1-3.2,1.6"/>
	<path class="st5" d="M1071.7,201h53.6v29.6h-53.6V201z"/>
	<path class="st5" d="M1166.6,111.3c-3,2.4-13.5,10.3-17.7,2.2c-0.8-1.7-1.1-3.8-0.8-5.7c0.1-11.1,14-37.3,15.6-38.4
		c1.6-1.2,2-2.6,2.4-3.5c0.4-1,2.4-5.5,4.8-3.9c2.4,1.6,1.2,5.6,0.5,6.8c-0.7,1.2-2.8,4.3-3.1,5.4c-0.1,0.4-0.2,0.9-0.4,1.4"/>
	<path class="st5" d="M1167.9,75.5c-1.7,6.3-7.6,21.3-8.1,23.2c0.3-0.4,0.7-0.7,1.1-1"/>
	<path class="st5" d="M1181,170.3l10.7,54"/>
	<path class="st5" d="M1158.8,170.3l10.7,54"/>
	<path class="st5" d="M1176.7,89.7c1.1,0.5,2,1.5,2.6,2.8c3.3,7.3-10.1,20.1-11.7,19.9c-1.6-0.3-7.3-14-6.7-16
		c0.2-0.8,2.3-2.7,5.1-4.4"/>
	<path class="st6" d="M1057.7,100.3v-0.2h-0.2c-0.1,0.1-0.1,0.2-0.2,0.3c-6.2,0.8-22.1,0.8-27.3-1.7c3.1,5.9,5.8,11.8,6.3,12.9
		c-0.6,2.1-1.3,4.2-3.4,6.1c-0.5-0.3-2.2-2.1-4.3-4.6c1.1,28.7,3.3,90.2,3.4,92.5c1.9,0,9.7,0.1,9.7,0.1l11.6-75.6
		c4.8,2.2,16.1,5.6,21.7,4.4l9,51.5l7.9,0.1c0,0,5-60.9,5.3-66.7C1090.9,109.1,1062.6,100.8,1057.7,100.3z"/>
	<polyline class="st5" points="1032.9,205.4 1032.9,211 1046.7,225.9 1038.9,210.7 1038.9,205.4 	"/>
	<polyline class="st5" points="1084.9,185.6 1084.9,201 1105.7,201 1090,191.5 1090,186.1 	"/>
	<polyline class="st5" points="1144,212.1 1144,221.1 1131.2,221.1 1140.8,215.5 1140.8,212.4 	"/>
	<polyline class="st5" points="1164.1,207.8 1167.3,215.7 1155.9,223.6 1162.6,212.8 1161.4,210 	"/>
	<path class="st5" d="M1178.3,66.7c1.2,0,3.4-4.6,3.4-9.4c0-3-1.8-11.9-9.4-15.6c-4.1-2-6.6-0.6-11.1-5.3"/>
	<path class="st5" d="M1159.7,37.9c0.4,1.2,1.7,4.4,3.6,6.1"/>
	<path class="st5" d="M1158.7,40.2c0.2,1.3,1.2,4.7,2.8,6.8"/>
	<path class="st5" d="M1163.3,57.2c-0.1,0.8-0.3,3.2-1.2,4.8"/>
	<ellipse class="st6" cx="1165.2" cy="57.8" rx="0.4" ry="0.6"/>
	<path class="st6" d="M1165,137c-0.3-0.4-0.5-0.8-0.6-1.3c-13.1,3-31.2,20.2-31.3,23c-0.1,3.1,24.6,52.6,26.9,52.4
		c1.3-0.1,3.9-1.7,4.5-3.8c0.3-1.1-9.2-37.5-10-40.3c8.2,0.7,31.9,3.8,32.2-22c0-0.4-0.1-0.8-0.2-1.2
		C1182,145.2,1168.2,141.2,1165,137z"/>
</g>
<g id="Layer_2_1_">
	<g id="shadow">
		<pattern  id="SVGID_1_" xlink:href="#SVGID_10_" patternTransform="matrix(-1 0 0 -1 -45633.9805 -31880.6504)">
		</pattern>
		<path class="st9" d="M166.7,66.8c0,3.4,2.9,17,6.6,14.2c0,3.2-0.6,11.6-0.6,11.6l-1.1,3.6l-1.9,0.6l-7.7-0.2l0.2-10.2l0.4-9.9
			l3.3-0.7l0.8-1.5l0.1-3.9L166.7,66.8z"/>
	</g>
	<g id="Layer_2-2">
		<path class="st3" d="M130.8,91.8c5.8,2.3,34.6,6,40.1,4.6c0,0.1,0,0.2,0,0.3c0.6,15.5-29.8,60-31.1,62.2
			c-1.2,2.2-34.9,60.7-35.5,62.8c-1.7,0.6-8.6-0.9-9.7-3.1L130.8,91.8z"/>
		<path class="st3" d="M171.3,96.3c3,9.6,10.7,54.9,10.7,56.5c0,1.7,33.2,60.9,33.1,62.1c-0.1,1.2-8.3,3.7-8.3,3.7
			s-46.2-52.7-49.1-55c-2.8-2.3-28.5-57.9-27.3-71.9C135.3,94,166.7,98,171.3,96.3z"/>
		<path class="st2" d="M103.8,221.1c-0.1,1.2-0.7,8-3.7,8.3c-3,0.2-19.2-6.4-19.7-8.3c-0.2-1.2,0-2.4,0.6-3.4l15,1.3"/>
		<path class="st2" d="M214.2,215c1.2,1.3,4.2,4.9,4.2,6.1c0,1.2-3.9,8.8-6.5,9.3c-2.8,0.5-14.1,0.1-14.1-1.4c0-3.1,6.3-3.1,6.9-3.6
			c0.6-0.5,2.5-6.4,2.5-7.4C207.1,216.9,214.2,215,214.2,215z"/>
		<path class="st2" d="M148.4,39.7C130.7,44,128,89.1,129.9,91.3c1.9,2.4,39.6,7.3,41.9,4.8c2.1-2.2,5.6-44.5-12.3-54.6"/>
		<path class="st2" d="M151.7,44.2c3.3,0.4,7.6,0,7.6-1.4V30.2"/>
		<path class="st2" d="M148.4,34.8v4.8"/>
		<path class="st2" d="M159.3,30.2c0.4-0.6,0.8-1.3,1.1-1.9"/>
		<path class="st2" d="M140.7,15.3c-0.8,2-1.2,4.1-1.2,6.2c0,6.6,3.9,12,8.9,13.3"/>
		<path class="st2" d="M160.5,28.3c0.1-0.2,0.2-0.5,0.4-0.7"/>
		<path class="st2" d="M157.9,26c0.5,0.2,1,0.3,1.4,0.3c2.1,0,3.7-1.5,3.7-3.3s-1.7-3.3-3.7-3.3c-1,0-1.9,0.3-2.5,0.9"/>
		<line class="st2" x1="257.9" y1="228.2" x2="157" y2="122.8"/>
		<path class="st10" d="M146.6,75.6c0.6,9.3,3.6,45.4,5.7,48.7c2.3,3.7,8.6,7.6,9.5,7.6c1.1,0,5.4-4.9,5.4-6.5c0-1.5-6-7.4-6.2-9.2
			c-0.2-1.6,1.2-30.6,1.3-39.9"/>
		<path class="st2" d="M153.4,47.7c-13.8,0-11.8,25.8-9.5,27.1s20.3,2.4,22.2,0.7S167,47.7,153.4,47.7z"/>
		<path class="st11" d="M279.3,204.5l-38.4-40.2c-2.8-2.9-7.6-3.2-10.9-0.8l-19.9,14.6l0,0l48.3,50.5l0,0l19.9-14.6
			C281.6,211.6,282,207.4,279.3,204.5L279.3,204.5z"/>
		<ellipse class="st2" cx="246.6" cy="223.6" rx="4.8" ry="4.2"/>
		<path class="st3" d="M154-0.1c5.4,0,18.2,5.6,25.8,5.6c5.7,0,13.5-5.3,20-5.3c12.2,0,14.5,13.4,14.5,16.5c0,9.8-7.5,12.1-9.9,12.1
			c-4.8,0-16.3-3.5-22.1-3.5c-6.5,0-13.5,3.5-17.6,3.5c-3.5,0-5.1-1.1-5.3-1.3c-0.1-0.1-0.1-0.6,0-1.3c0.1,0,0.4,0,0.5,0
			c2.1,0,3.7-1.5,3.7-3.3s-1.7-3.3-3.7-3.3c-0.8,0-1.7,0.3-2.3,0.7c-2.3-1.4-6.8-2.5-8-3.1c-3.4-1.8-6.6-4.1-6.8-4.7
			c-0.5,0.6-0.8,1.2-1.8,3.4c-1.6-0.6-3.5-2.2-3.5-7.2C137.2,0.9,151-0.1,154-0.1z"/>
	</g>
</g>
<g id="Layer_2_2_">
	<g id="vector">
		<pattern  id="SVGID_2_" xlink:href="#SVGID_11_" patternTransform="matrix(1 0 0 -1 21 -31373.1172)">
		</pattern>
		<polygon class="st12" points="937,54.9 938.5,50.7 936.2,50.4 935.6,44.1 934.2,37.9 933.5,31.9 932.3,25.8 932,25 932.1,16.9 
			931.4,14.4 930.1,12.7 928.7,13.3 929.9,16.6 930.3,21.5 929.7,25.2 929.7,25.8 930.4,32 931.7,38.7 932.8,45.1 934.2,51.7 
			934.8,57 937.2,56.1 		"/>
		<path class="st13" d="M935,56.8L935,56.8L932,40l-2.6-14.8l0,0c0,0.1,0,0.1,0,0.2C929.7,27.2,934.8,55.4,935,56.8L935,56.8z"/>
		<path class="st13" d="M930.3,21.8L930.3,21.8L930.3,21.8L930.3,21.8z"/>
		<path class="st13" d="M938.6,15.9L938.6,15.9z"/>
		<path class="st13" d="M947.4,16.3c0-0.1,0-0.3,0-0.4c-0.5,0.9-1,3-1.1,3.4v0.1L947.4,16.3z"/>
		<pattern  id="SVGID_3_" xlink:href="#SVGID_12_" patternTransform="matrix(1 0 0 -1 21 -31373.1172)">
		</pattern>
		<path class="st14" d="M951.1,67.1c1.5,0.7,13.9,8.8,13.8,17.4c0.2-7.5,0.2-13.7,0.2-13.7l-0.7-6.6l-1.3-9.1l-2.7,4.4l-3.4,4
			l-4,3.2L951.1,67.1z"/>
		<path class="st15" d="M875.7,218.8H868v11h-11.4v-11h-23.1v-4.2l26.8-44h7.7v36.5h7.7V218.8z M856.6,207.1v-13.7l-8.1,13.7H856.6z
			"/>
		<path class="st15" d="M882.2,200.3c0-17,4.2-30.5,18.4-30.5s18.3,13.4,18.3,30.5c0,17-3.9,30.3-18.3,30.3S882.2,217.2,882.2,200.3
			z M907.6,200.3c0-10.3-1.7-18.2-7-18.2c-5.4,0-7.3,7.9-7.3,18.2c0,10.2,1.8,18,7.3,18C905.9,218.2,907.6,210.5,907.6,200.3
			L907.6,200.3z"/>
		<path class="st15" d="M965.4,218.8h-7.7v11h-11.4v-11h-23.1v-4.2l26.8-44h7.7v36.5h7.7V218.8z M946.4,207.1v-13.7l-8.1,13.7H946.4
			z"/>
		<path class="st6" d="M960.2,108.8c0.2,2.4,5.1,107.1,5.1,107.1h-5.1l-25-98.6L960.2,108.8z"/>
		<path class="st6" d="M962.7,98.2c0.6,14.3-5,26-14.8,26c-13.4,0-31.2-9.3-36-14.5c-1.2,3.9-18.4,53.1-18.4,53.1h-7.1
			c0,0,4.6-57.3,13.2-72c2.8-4.1,21.9-3.9,33.5-0.9C942.3,96.4,959.5,99.2,962.7,98.2z"/>
		<path class="st7" d="M928.7,13.2c0.2-0.2,0.6-0.3,1-0.3c1.1,0.1,2.8,3.1,2.8,5.5s-0.6,3.4-0.5,5.1s4.4,25.7,4.4,27.2
			c0.9,0,1.6-0.1,2.4-0.2"/>
		<path class="st7" d="M951.1,39.4c4.2,0.5,7.2,3.6,9.3,8.1"/>
		<path class="st7" d="M936.9,56c2-6.4,4.5-12,7.9-14.8"/>
		<path class="st7" d="M962.8,54.6c4.2,17,1.5,42.3-0.1,43.7c-2.3,2.1-27.6-5-29.7-8.2c-0.9-1.3-0.7-10.2,0.9-20.3"/>
		<path class="st7" d="M942.5,53.7c-1.1,0.4-7.7,3.2-7.7,3.2c-0.1-1.4-5.1-29.7-5.5-31.4c0.6-1.7,1-3.6,1-5.4c0-4.6-1.7-8.4-3.9-8.4
			s-3.9,3.7-3.9,8.4c0,1.9,0.2,3.9,1,5.7c-0.2,3.5-2.4,37.1,2,41.9c4.5,4.9,15.1,0.8,22.1-2.6"/>
		<polygon class="st6" points="932.9,23.3 933.6,20.2 937.6,21.4 936.9,24.5 		"/>
		<path class="st7" d="M957.6,46.7c2.3,0.3,4.3,1.2,5.1,3c3.1,6.5-9.2,18.2-12.6,17.4c-3.4-0.9-8.8-14-7.8-16.3
			c0.2-0.7,1.8-1.6,3.9-2.3"/>
		<path class="st7" d="M944.8,41.2v-1.8"/>
		<path class="st7" d="M951.1,35.9v8.8c0,0.5-1.5,0.9-2.9,0.9"/>
		<path class="st7" d="M952.4,33.1c-0.4,1-0.9,2-1.5,2.8"/>
		<path class="st7" d="M947.3,39.2c-0.5,0.2-1.1,0.3-1.6,0.3c-4.5,0-8.1-6.4-8.1-14.2c0-2,0.2-4.1,0.7-6.1"/>
		<path class="st7" d="M949.5,30.7c0.1,1.6,0.6,2.4,1.1,2.4c0.5,0,2-0.4,2.8-0.4c8.7,0,18.9,11.1,38.5,11.1
			c10.3,0,26.3-3.2,26.3-21.7c0-10-2.9-22.1-18.3-22.1C990,0,983.1,5.9,975,5.9c-10.4,0-14.3-4.6-21.5-4.6
			c-5.1,0-16.6,3.7-16.6,13.2c0,3.6,0.9,4.7,1.2,4.9c0.1-0.4,0.7-2.4,1.1-3.4c-0.1,1.3,0.2,2.6,0.9,3.7"/>
		<path class="st7" d="M949.5,25.5c0.2,0.3,0.5,0.6,0.6,0.9"/>
		<path class="st7" d="M949.1,26.8c0.4-0.2,0.7-0.4,1.1-0.4c1.1,0,2.1,1,2.1,2.2c0,0.9-0.5,1.7-1.2,2"/>
		<path class="st6" d="M930.4,20c0,1.7-0.2,3.4-0.7,5c2.3,0.3,4,0.5,4,0.5l1.6-7c0,0-2.3-1.1-5.4-2.4
			C930.2,17.4,930.4,18.7,930.4,20z"/>
		<path class="st6" d="M922.6,20c0-2.6,0.5-5,1.5-6.5c-2.6-1.1-4.8-2-5.3-2.1c-1.8-0.5-4.4,11.2-2.7,11.6c0.7,0.2,3.7,0.6,7.1,1.1
			C922.7,22.8,922.6,21.4,922.6,20z"/>
		<polyline class="st7" points="893.4,164 893.4,169.1 875.7,169.1 887.7,165.9 887.7,164 		"/>
		<polyline class="st7" points="965.4,215.7 965.4,221.6 950.2,221.6 960.5,217.8 960.5,215.7 		"/>
	</g>
</g>
<g id="Vector_2_">
	<g id="Layer_3">
		<path class="st16" d="M236.5,115.7c-2.7,1.8-8,3.4-18.6,3.7c-11.1,0-20.2-11.6-20.2-26.8c-0.4-33.1,31.1-39.4,48.6-76.3
			c8.1-17,17.7-16.6,20.3-16.4c5.3,0.3,13,4.9,13,13c0,2.9-1.1,5.6-3.1,7.5"/>
		<path class="st16" d="M270.5,37.3c-1.2,3-3.5,8-4.3,13.7"/>
	</g>
	<path class="st17" d="M321.1,124.3c6.6,0,16.3,43.3,20.5,56.1c-0.8,2.6-5.8,6.8-8.6,6.8c-5.3-9.6-17-30.3-19.1-33.5
		C312.3,151.1,314.5,124.3,321.1,124.3z"/>
	<path class="st18" d="M318.6,38.7c1.1-0.8,0.6-0.2,1.4-1.7"/>
	<path class="st16" d="M276.9,116.4c-0.1,1-0.2,1.9-0.5,2.9c-10.7,5-38.7,2-39.6-1.5c-0.7-3-4.1-64.3,14.4-71.9"/>
	<path class="st16" d="M261.2,46.6c13.8,7.6,16.8,40.3,16.4,59.6"/>
	<path class="st16" d="M256.7,48.2c-2.9-0.5-6-1.6-5.7-2.2c3.1-5.8,3.9-11.9,4.3-15.3"/>
	<path class="st16" d="M263.3,40.4c-0.6,1.6-1.7,4.3-2.2,6.2"/>
	<path class="st16" d="M245.6,84.4c-0.2,1.5,0,3.3,0,4.4c-0.1,6,0.2,12.7,3.5,17.8c1.3,2,3.4,3.9,5.4,3.8c3.3,1.4,8.7,3,8.7,3l8.2,2
		c0,0,14,2.7,20.8,2.5c2.3-0.1,4.6-0.4,6.9-0.3c1.3,0,3.4,0.5,4.7,0c0.4-0.1,0.2-1,0.2-1.3c-0.2-1.2-1.3-2-2.3-2.6
		c-2.2-1.2-3.5-0.5-5.8-0.4c-1.9,0-4.1-1-7.4-2.4c-3.9-1.7-8.2-3.6-12.2-5.1c-4.5-1.7-9.1-3.4-13.4-5.4c-0.8-0.4-1.8-0.7-2.7-1
		c0.4-2.6,0.6-5.2,0.7-7.8c0.1-2.8,0.1-5.8-0.2-8.6"/>
	<path class="st16" d="M263.2,74.1c0.5,3.8,0.6,6.8,0.2,7.8c-2.1,1.3-13,5.5-21.1,1.2c-2.5-7.2-0.4-29.7,7.7-31.1
		c2.1-0.4,3.9,0.4,5.4,1.8"/>
	<path class="st16" d="M260,39.2c0.6,0.4,1.2,0.7,1.8,0.9c2.9,1,6.2-0.2,8.7-2.8"/>
	<path class="st16" d="M260,24.4c-2.2,0.6-4.3,0.9-6.6,1c-0.4,0.5-0.6,1.2-0.6,1.9c0,1.6,1.1,2.9,2.5,3.1l0.1,0.4"/>
	<path class="st16" d="M270.5,37.3c2.3-2.3,4.2-5.7,5.2-9.7c1.1-4.4,1-8.8-0.1-12.3c-0.6,0.6-1.2,1.2-1.9,1.8"/>
	<path class="st19" d="M284.1,118.4c5.8,0,26.8-0.2,30.7-0.2"/>
	<path class="st16" d="M280.6,118.7c6.2,0,27.3-0.6,30.8-0.6c2.7-4.6,15.3-28.8,16.2-30.6"/>
	<path class="st17" d="M321.1,125.3c0.1-4.9-16.5-6.3-27-6.3c-4.7,0-11.8,0.3-18.3,0.6c-10.6,4.3-35.5,1.9-38.6-1.3
		c-1.4,1.8-2.3,5.2-2.3,11.5c0,14.8,14.7,27.1,32.2,27.1s25.2-0.5,26.8-0.9c0.5,4.9-9.9,38.3-11,46.9c0.7,2.3,5.9,5.2,8.1,5.2
		S321.9,156.8,321.1,125.3z"/>
	<polyline class="st16" points="283.7,202.7 276.5,215.9 300.4,230 287.6,209.5 289.2,206.3 	"/>
	<polyline class="st16" points="333.7,186.3 340,200 363.7,185.7 340.9,186.4 339.4,183.2 	"/>
</g>
<g id="Vector_3_">
	<pattern  id="SVGID_4_" xlink:href="#SVGID_13_" patternTransform="matrix(1 0 0 -1 -3 -31372.9375)">
	</pattern>
	<path class="st20" d="M35.6,109.6c0.5-0.7,1.2-1.6,1.9-2.7l0.7-1l0.5-0.7c0.7-1.1,1.6-2.4,2.4-3.7l0,0l0,0c0.7-1.2,1.4-2.4,2.2-3.6
		l0,0l0,0c0.6-1.1,1.2-2.2,1.7-3.4l0,0l1-0.1l1.3-1.2l2.1-2.9l0.7-1.2l0.4-0.2c0,0.6-0.6,5.9-0.7,13.2
		C45.5,104.6,40.8,107.1,35.6,109.6z"/>
	<pattern  id="SVGID_5_" xlink:href="#SVGID_14_" patternTransform="matrix(1 0 0 -1 -3 -31372.9375)">
	</pattern>
	<path class="st21" d="M35.2,126.8c4.5-2.5,9.8-6.2,14.8-10c1.4,15.3,6.2,33,19.2,41.1c-15.2,2.4-32.2-6.8-32.2-6.8l-0.5-1l-0.7-3.9
		l-0.7-6.7v-6.2L35.2,126.8L35.2,126.8z"/>
	<path class="st22" d="M62.9,230.6h19.9c0,0,6.8-77.8,6.8-79.5c-1.2,1.3-1.1,1.8-6.2,3.5c-3.1,3.7-24.9,64.3-24.9,64.3L62.9,230.6z"
		/>
	<path class="st22" d="M37.2,151.2v79.5h25.7l20.5-76C76.3,156,48.9,157.2,37.2,151.2z"/>
	<path class="st23" d="M94.3,89.9c1.4,9.8,4.8,42.5-4.8,73.2c-0.2,0.1-0.5,0-0.7-0.2"/>
	<path class="st23" d="M90.3,92.6c2.9-1.6,5.2-3.3,5.7-4.5c1.1-2.8-6.2-24.4-16.3-29.4"/>
	<path class="st23" d="M58.8,50.5c-2.4,1-4.6,2.7-6.6,5"/>
	<path class="st23" d="M35.4,126.6c-0.4,13.3,0.5,23.4,1.8,24.6c4.3,4.1,48.5,8,52.4,0c3.6-7.5,7.4-91.3-20.2-100.9"/>
	<path class="st23" d="M54.7,57.7c-0.5-0.6-1-1.1-1.6-1.6c-8-6.6-26.7,19.8-26.6,24.7c0.2,4.8,15.8,14.8,19.1,13.9
		c0.8-0.2,2.5-2.2,4.3-5.4"/>
	<path class="st23" d="M69.5,50.3v-4.5"/>
	<path class="st23" d="M58.8,39v14.7c0,1.6,3.3,2.4,6.2,2.2"/>
	<path class="st23" d="M69.5,45.8c4.6-2.2,8-10.5,8-20.2c0-2.2-0.2-4.5-0.6-6.7"/>
	<path class="st23" d="M66.9,46.4c0.8,0,1.8-0.2,2.5-0.6"/>
	<path class="st23" d="M56.7,31.6c0.4,2.5,1.1,5,1.9,7.2"/>
	<path class="st23" d="M58.3,37.8h-1.8c-2.7,0-3.9-1.1-8-1.1c-7.2,0-17.3,9.9-29.6,9.9C5.6,46.4,0,35.3,0,22.8c0-16.7,14.2-21,21-21
		c8,0,14.6,6.4,23.2,6.4c6.2,0,12.1-8.2,20.8-8.2c11.1,0,14.6,6.6,14.6,11.2c0,3.7-2.1,7.7-2.7,7.7c-0.2-1.2-1.3-5.3-1.7-5.7
		c-0.1,0.5-1,1.8-2.4,3.5"/>
	<path class="st23" d="M58.5,26c-1.3-0.9-3-0.6-3.9,0.8c-0.8,1.4-0.5,3.4,0.7,4.3c0.4,0.3,0.8,0.4,1.2,0.5"/>
	<path class="st24" d="M75.2,98.4c3.6-2.3,5.4-6.7,3.9-9.7c-1-1.8-3-2.7-5.4-2.4L75.2,75L88,77.1l-3.3,24.4l-11.9-2
		C73.6,99.3,74.5,98.9,75.2,98.4z"/>
	<path class="st23" d="M44.9,94.7c-1.7,4.3-7.2,12.1-9.3,15c17-8.2,28.7-16.5,29.8-17.6c0.1-0.1,0.4-0.2,0.5-0.1
		c0.8-1.8,2.2-3.4,3.9-4.3c3.6-2.3,8-1.9,9.4,1c1.6,2.9-0.2,7.2-3.9,9.7c-1.3,0.9-2.8,1.3-4.3,1.5c-0.1,0.1-0.1,0.2-0.2,0.2
		c-2.3,2.2-34.8,30.2-44.7,30.2c-2.4,0-6.4-4.4-6.4-13c0-3,1.8-19.7,8.4-33.2"/>
</g>
<g id="Layer_2_3_">
	<g id="Layer_1-2">
		<pattern  id="SVGID_6_" xlink:href="#SVGID_15_" patternTransform="matrix(-1 0 0 -1 -45716.0391 -31354.666)">
		</pattern>
		<path class="st25" d="M534,96.6c2.3-2.8,10.1-32.7,1.3-49.1l0.9-3.6c0.5-2.1,2.8-3.5,5.1-3.1l0,0l16.2,3c2.3,0.4,3.9,2.5,3.4,4.6
			l0,0l-12.2,52.7c-0.5,2.1-2.8,3.5-5.1,3.1l0,0l-10.6-2l0.3-5.2C533.5,97.1,533.8,96.9,534,96.6z"/>
		<path class="st7" d="M490.1,74.1c-1.5,6.6-1.9,12-1.5,13.7c1.7,6.1,42.3,12.5,45.3,8.9c2.8-3.5,13.9-48-7.5-57.7"/>
		<path class="st7" d="M503.7,44.6c-1.2,1.3-2.3,2.8-3.2,4.2"/>
		<path class="st7" d="M516.9,37.3c-2.8,0.3-5.3,1.2-7.6,2.5"/>
		<path class="st7" d="M516.3,40.8c0.7-1.6,0.6-6.6,0.3-8.8"/>
		<path class="st7" d="M528.6,27c-1.3,3.8-1.8,8.8-2.2,13.7c-1.1,0.8-3.1,1.1-5.1,1.1"/>
		<path class="st26" d="M488.1,98.7L488.1,98.7z"/>
		<path class="st7" d="M487.6,33.1l-8-28.1L476,5.8l8,28.1L487.6,33.1z"/>
		<path class="st7" d="M485.4,30.5l-2.1,0.5"/>
		<path class="st7" d="M484.3,26.7l-2.1,0.5"/>
		<path class="st7" d="M483.3,23l-2.1,0.5"/>
		<path class="st7" d="M482.2,19.3l-2.1,0.5"/>
		<path class="st7" d="M481.2,15.7l-2.1,0.5"/>
		<path class="st7" d="M480.2,12l-2.1,0.5"/>
		<path class="st7" d="M479.1,8.3L477,8.8"/>
		<path class="st7" d="M475.4,22.4c-2.1-0.7-3.6,1.1-4.3,2.7c-1,2.6-0.4,4.9,0.6,5.3c1.1,0.4,2.2,0.1,3-0.7c0.1,0.7,0.2,1.3,1.6,1.8
			c2.1,0.8,4.5-1.7,5.1-3c0.8-1.7,0.5-4.2-1.1-4.9c-1.3-0.5-2.2-0.1-2.7,0.3C477,23.2,476.4,22.7,475.4,22.4z"/>
		<pattern  id="SVGID_7_" xlink:href="#SVGID_16_" patternTransform="matrix(-1 0 0 -1 -45716.0391 -31354.666)">
		</pattern>
		<path class="st27" d="M476.8,17.2c-3.2,0.2-0.8,4.7,0.7,5.6C478.6,22.1,479.9,17,476.8,17.2z"/>
		<path class="st7" d="M533.4,72.9c0.2,5.1-0.4,13.1-8.3,14.7c-9.1,1.8-38.6-16.4-43.9-17.5c-5.3-1.1-5.4,0.6-9.3-0.8
			c-7.6-2.7-6.1-5.3-5.5-8.2c3.2,0.9,49.1,11.3,50.7,11.7c0.2-0.3,0.3-0.7,0.4-1.1"/>
		<path class="st7" d="M531.4,47.9c-1.1-0.7-2.3-1.1-3.7-1.1c-1.5-0.1-3,0.2-4.3,0.8"/>
		<path class="st7" d="M516.1,58.3c-1.5,5.9-1.4,12-0.4,12.8c1.9,1.5,19.7,2.9,21,1.1c1.2-1.5,2.1-19.4-5.3-24.2"/>
		<path class="st7" d="M467.3,52.5l32.9,7.7c3,0.7,5,3.1,4.3,5.3c-0.7,2.2-3.6,3.5-6.6,2.7L465,60.6"/>
		<path class="st7" d="M470.5,62l2.4-8.2"/>
		<pattern  id="SVGID_8_" xlink:href="#SVGID_17_" patternTransform="matrix(-1 0 0 -1 -45716.0391 -31354.666)">
		</pattern>
		<path class="st28" d="M500.7,54.3l-46.6-10.9l-1.6,5.7L499.1,60L500.7,54.3z"/>
		<path class="st7" d="M500.4,48.8l1.3-4.6L468,36.3l-2.7,9.5l33.8,7.9L500.4,48.8"/>
		<path class="st7" d="M513.5,40.9L466.8,30l-1.6,5.7l46.6,10.9L513.5,40.9z"/>
		<path class="st7" d="M499.5,61.1l-1.8,6"/>
		<pattern  id="SVGID_9_" xlink:href="#SVGID_18_" patternTransform="matrix(-1 0 0 -1 -45716.0391 -31354.666)">
		</pattern>
		<path class="st29" d="M498.3,47.5l-9.6-2.3l-0.8,2.7l9.6,2.3L498.3,47.5z"/>
		<path class="st7" d="M510,43.5L490.8,39"/>
		<path class="st7" d="M571.3,189.6l-15.5,25.2l-4.3-2l4.9-18.7l6.1-8.6L571.3,189.6z"/>
		<path class="st7" d="M488.2,227.1l-31.7-5.3l0.9-4.3l21.4-1.6l11,2.6L488.2,227.1z"/>
		<path class="st7" d="M511.7,12.2c-0.8-2-1.4-2.8-1-4.7c1.2-5.9,7.7-8.3,13.5-7.2c9.9,2,14.6,6.8,20.6,7.8c9,1.4,17.4-1.6,26.8,0.8
			c12.7,3.1,14.6,11.3,12.7,18.6c-3.3,12-15,14.6-23.7,13.4c-12.8-1.8-12.9-9.8-20.9-11.1c-3.7-0.6-6.2,0.2-10-0.6
			c-0.6-0.1-1.2-0.3-1.7-0.5"/>
		<path class="st7" d="M513.3,10.3c-2,2-3.1,4.6-3.8,7.6c-1.4,7.1,2.2,13.4,8.2,14.1c2,0.2,3.9-0.2,5.8-1.1"/>
		<path class="st7" d="M525,19.9c1.5,0.7,3,1.4,4.2,1.9"/>
		<path class="st7" d="M513.5,9.6c-0.2,1,0.3,2,1.3,3.2"/>
		<path class="st7" d="M527.7,26.3c1.3,0.9,3,0.7,3.9-0.5c1-1.1,0.8-2.7-0.5-3.6c-0.5-0.3-1.1-0.5-1.7-0.5c-0.3,0-0.6,0-0.9,0.1"/>
		<path class="st30" d="M490.3,89.7c5.8,4.1,25.9,7.9,36.8,8.1c-5.3,15.2-37.4,120.7-37.4,120.7l-10.1-2.3L490.3,89.7z"/>
		<path class="st30" d="M534,96.6c0.1-0.1,0.2-0.3,0.3-0.5c-2.1,9.4-11.3,50-14.1,56.1c4.1,3,42.3,33.2,42.3,33.2l-5.1,7l-54.7-26.9
			l9.9-69.3C522.8,98,532.6,98.4,534,96.6z"/>
		<path class="st7" d="M532.9,102.3l10.6,2c2.3,0.4,4.7-1,5.1-3.1l0,0l12.2-52.7c0.5-2.1-1-4.2-3.4-4.6l0,0l-16.2-3
			c-2.3-0.4-4.7,1-5.1,3.1l-0.9,3.6"/>
		<path class="st7" d="M537.1,45.5c-1.4-1-3-1.7-4.8-2.1"/>
		<path class="st7" d="M532.1,80.8c2.7-1.6,5.1-4,7-6.9"/>
		<path class="st7" d="M532.3,43.3c-8.4-1.8-17.4,5.8-20.2,16.6c-1.1,4.3-1,8.5-0.1,12.1"/>
	</g>
</g>
<g id="Layer_2_4_">
	<g id="Layer_1-2_1_">
		<pattern  id="SVGID_22_" xlink:href="#SVGID_19_" patternTransform="matrix(-1 0 0 -1 -45867.7578 -31896.8008)">
		</pattern>
		<path class="st31" d="M748.8,48.7c4-2.6,9.2-4.2,14.7-4.9l-0.1,3.3c0,0,6.5,2.3,10.9,0c-0.2-1-0.4-2.1-0.4-3.1
			c3.5,0.8,6.4,2.4,8.8,4.7c-5.5,7.6-11.9,16.5-12.8,18.1c-0.9-1.1-3.1-3-5-4.5c1-1,1.9-1.9,2-2.6C765.2,57.2,755.9,50.4,748.8,48.7
			z"/>
		<pattern  id="SVGID_23_" xlink:href="#SVGID_20_" patternTransform="matrix(-1 0 0 -1 -45867.7578 -31896.8008)">
		</pattern>
		<path class="st32" d="M742.2,63.5c1.8,2.6,4,5,6.1,6.5c1.3,0.3,3-0.1,5-0.8c2.6,2.5,7.3,6.6,11.7,9.3c-8.1,3.7-15.2,8.5-21.1,14.1
			C742.7,83.3,741.9,71.8,742.2,63.5z"/>
		<pattern  id="SVGID_24_" xlink:href="#SVGID_21_" patternTransform="matrix(-1 0 0 -1 -45867.7578 -31896.8008)">
		</pattern>
		<path class="st33" d="M789.1,57.4c2,4.1,3.4,8.7,4.3,13.4c-3.8,0.4-7.5,1-11,1.8C784.2,68.7,786.7,62.9,789.1,57.4z"/>
		<path class="st34" d="M793.2,29.4c-0.1,0.3-0.6,1.1-1.3,2.1v-3.4h0.9C793,28.7,793.3,29,793.2,29.4z"/>
		<path class="st34" d="M801.3,30.2c-1.3-1.1-4.1-0.7-4-1.8c0-0.1,0-0.1,0.1-0.2h21.5v10.9h-17.4C802.3,37.3,802.4,31.2,801.3,30.2z
			"/>
		<path class="st34" d="M809,24.5h-7.3v3.9h7.3V24.5L809,24.5z"/>
		<path class="st35" d="M794.3,77.2c0.1,0,0.2,0,0.4,0c9.7-0.4,13.6-14.4,17.7-38.4c-6.5-2.9-8-0.8-8.6,1.9
			c-0.6,2.7-6,16.9-7.5,20.1"/>
		<path class="st35" d="M791.6,63.9c2.4-1.1,4.2-2.3,4.7-3.1c-0.5-1.4-2.7-4.5-5.6-7.5"/>
		<path class="st35" d="M783.6,47.5c-1.6-0.9-3.1-1.5-4.6-1.7"/>
		<path class="st36" d="M802,32c1.3-1.7,3.7-2.7,6.3-2.7v10.6c-2.6,0-5-1.1-6.3-2.8C802.2,35.5,802.2,33.7,802,32z"/>
		<path class="st35" d="M742.2,63.5c-0.5,15.4,2.7,41.6,4.2,45.1c4.8,2.5,43.6,2.1,47.6-0.9c1.3-3.9,3.6-32.6-4.9-50.2"/>
		<path class="st35" d="M763.5,43.8c-5.5,0.7-10.7,2.3-14.7,4.9"/>
		<path class="st35" d="M782.8,48.6c-2.4-2.3-5.5-3.9-8.8-4.7"/>
		<path class="st35" d="M763.7,34.1L763.5,47c1.9,0.6,3.8,0.9,5.8,1"/>
		<path class="st35" d="M774.4,47c-0.7-2.5-0.5-6.3-0.3-8.8"/>
		<path class="st35" d="M761.7,31.2c2,4,5.9,6.8,10.6,7.1c7.2,0.4,13.8-5.6,14.4-13.2c0.6-7.6-4.6-14.2-12-14.5
			c-7.2-0.4-13.8,5.6-14.4,13.2c-0.1,0.8-0.1,1.6,0,2.3"/>
		<path class="st35" d="M764.5,8.4c0-4.7-5.1-8.5-11.5-8.5s-11.5,3.8-11.5,8.5s5.1,8.5,11.5,8.5S764.5,13.1,764.5,8.4L764.5,8.4z"/>
		<path class="st35" d="M775,21.1c-2.2,1.5-4.6,2.9-7.2,4"/>
		<path class="st35" d="M760.4,26.2c-0.1-0.8-0.1-1.6,0-2.4c0.7-7.7,7.1-13.6,14.4-13.2c3.3,0.2,6.2,1.6,8.3,3.8
			c-1.7,1.8-3.5,3.5-5.6,5"/>
		<path class="st35" d="M753.3,69.2c4.2,3.9,13.6,12,17.7,12c5,0,6.8-1.7,8.6-3.6c1.9-1.9,15.6-35,16.4-37.1c2.3-0.5,3.9-0.1,5-1.1
			c1.2-1,1.4-8.2,0.1-9.3c-1.3-1-4.1-0.7-4-1.8c0.1-1,3.8-4.1,2.1-5.3c-1.9,0.3-4.9,2.4-6.1,3.8c-1.2,1.4,0.1,1.8-0.1,2.5
			c-0.2,0.8-3.9,5.2-2.5,8c-0.9,2-19,26.5-20.6,29.2c-0.9-1.1-3.1-3-5-4.5"/>
		<path class="st35" d="M759.8,66c3.7-2.3,6.8-4.9,7.1-6.4c-1.4-1.8-7.1-6.3-13-9"/>
		<path class="st35" d="M744.2,48.4c-0.5,0.1-1,0.3-1.5,0.6c-8.2,4.8-0.4,16.4,5.7,21c0.9,0.2,2.3,0.1,3.8-0.4"/>
		<path class="st36" d="M814,29.3h-6v10.6h5.9V29.3H814z"/>
		<path class="st37" d="M821.1,34.6c0-2.9-3.3-5.3-7.2-5.3c-4,0-7.2,2.4-7.2,5.3c0,2.9,3.3,5.3,7.2,5.3l0,0
			C817.9,39.9,821.1,37.5,821.1,34.6z"/>
		<path class="st35" d="M803.5,229.4l32.9,0.1l0.1-3.7l-21.1-4.3l-11.5,0.6L803.5,229.4z"/>
		<path class="st35" d="M744.1,229.8l20.4,0.1l0.1-3.7l-7.3-4.9l-12.7-0.1L744.1,229.8z"/>
		<path class="st34" d="M814.5,27h-4.8v1.4h4.8V27z"/>
		<path class="st34" d="M779.2,110l-19.4,117.3l-12.7-0.1l-0.6-118.7C750.7,110.5,766.8,110.8,779.2,110z"/>
		<path class="st34" d="M794,107.6l24.4,119.7l-11.9,1l-37.7-79.7c0,0-7-26,0.9-38.2C779.8,110.2,790.6,108.9,794,107.6z"/>
		<path class="st35" d="M764.6,25.7c-2-0.6-4.4,0.1-5.2,1.6c-0.8,1.5,0.1,3.2,2.1,3.9c0.7,0.2,1.6,0.3,2.3,0.2"/>
	</g>
</g>
<path class="st6" d="M627.8,104.2c-0.1,0-0.2,3.9-0.2,10.3c0.2,2.1,0.3,3.4,0.3,3.6v0.1c0.7,1.2,1,2.6,0.9,3.9
	c0,1.6-0.5,3.1-1.3,4.5c0,32,0.3,86.9,0.3,86.9h8.1l22.7-99.7C649.8,112.2,635.5,107.2,627.8,104.2z"/>
<path class="st38" d="M626.2,95.3c-0.5,3.3,1.6,22.2,1.6,22.8v0.1c0.7,1.2,1,2.6,0.9,3.9c0,1.1-0.2,2.1-0.6,3.1l8.4-0.6l-2.5-31.7
	l-7.4,0.5C626.4,94.3,626.3,94.9,626.2,95.3z"/>
<path class="st38" d="M618.7,122.1c0-1.4,0.3-2.9,1-4.1c-0.1-1.2-2.4-8.7-3.4-21.7c0-0.7-0.1-1.4-0.1-2.1l-7.8,0.5l2.5,31.7l8.6-0.6
	C619,124.7,618.7,123.4,618.7,122.1z"/>
<path class="st6" d="M670.9,114.6c0.2,3.3,8.4,98.1,8.4,98.1h-8.4L649,141.4c0,0,5.7-28.5,6.1-28.4
	C657,113.5,667.3,115.2,670.9,114.6z"/>
<path class="st7" d="M678.6,60.6c2.7,1.9,7.1,5.6,9.3,8.3c2.2-1.5,27-20.8,27.4-21.8c0.9-0.5,3.1,2.4,0,4.8c2.1-0.1,14.5-0.4,14.5,0
	s2.7,1.4-15.5,4.2c-2.4,2.7-24.2,26.7-27.8,26.7c-2.4,0-9.9-6.1-14.6-10.8"/>
<path class="st7" d="M671,67.6c3.6-2.1,7.4-5.8,8.6-8.7c0.7-1.7-10.5-9.7-17.5-10.8"/>
<path class="st7" d="M626.7,103.6c6.1,4.4,41.2,13.9,44.2,11c3-2.9,8.3-64.8-17.8-72.3"/>
<path class="st7" d="M643.5,41.9c-5.3,0.9-9.3,3.7-12.3,7.6"/>
<path class="st7" d="M648.3,48.1c2.4,0,4.7-0.4,4.7-1.2V36.8"/>
<path class="st7" d="M643.5,36.9v5"/>
<ellipse class="st7" cx="648.2" cy="21.5" rx="10.9" ry="17.1"/>
<path class="st6" d="M646.4,0.6c-5.4,0-12.7,2.5-17.9,2.5c-4.7,0-13.4-3.2-17.9-3.2c-3,0-16.8,1.3-16.8,11.7c0,4.7,5.3,9.2,6.4,10.4
	c1,1.2,3,8.2,8,8.2c6.9,0,11.7-4.7,17.9-4.7c4.4,0,5.6,1,7.6,1c1.6,0,3.9-0.7,3.9-0.7c0-0.8-0.1-7.2,0.8-8.2
	c1.3-1.5,18.2,0.7,18.2-4.5c1.2,1,2.3,5.2,2.3,6.1c0.8-0.7,3.6-4,3.6-7.4S660.2,0.6,646.4,0.6z"/>
<path class="st39" d="M627.8,118.1C627.8,118.1,627.8,118.2,627.8,118.1c0.6,1.3,0.9,2.7,0.9,4c0,2.5-1,4.6-2.5,5.8l13.1-0.9
	l-2.5-31.7L626.2,96C626,100.8,627.8,117.5,627.8,118.1z"/>
<path class="st39" d="M618.7,122.1c0-1.4,0.3-2.9,1-4.1c-0.1-1.2-2.4-8.5-3.4-21.3l-5.3,0.4l2.5,31.7l8-0.6
	C619.9,127.2,618.7,124.9,618.7,122.1z"/>
<path class="st7" d="M619.8,68.3c-1.4,4.9-4.2,17.2-3.5,28.1c0.9,13,3.2,20.5,3.4,21.7c-0.7,1.3-1,2.7-1,4.1c0,3.7,2.2,6.7,5.1,6.7
	c2.8,0,5.1-3,5.1-6.7c0-1.4-0.3-2.7-0.9-3.9c0,0,0,0,0-0.1c0-0.6-2.1-19.5-1.6-22.8c0.3-2.9,4.9-17.3,6-23"/>
<path class="st7" d="M635.2,53.2c-0.6-1.8-1.5-3.1-2.8-3.5c-7.2-2.2-15.7,13.3-14.9,16c0.8,2.5,6.5,5.2,11.5,6.1"/>
<ellipse class="st40" cx="706.4" cy="17.9" rx="2.1" ry="1.9"/>
<ellipse class="st41" cx="716.2" cy="18.1" rx="2.1" ry="1.9"/>
<path class="st7" d="M632.7,98c0,0.8-0.6,1.6-1.5,1.6l0,0c-0.9,0-1.6-0.6-1.7-1.4l-0.3-5c0-0.8,0.6-1.6,1.5-1.6l0,0
	c0.9,0,1.6,0.6,1.7,1.4l0.2,2.7"/>
<polyline class="st7" points="635.3,214.2 635.3,223.7 621.6,230.6 629.5,222.2 629.5,213.7 "/>
<polyline class="st7" points="670.9,213.4 670.9,223.7 689.7,223.7 677.1,217.7 677.1,212.9 "/>
<g id="Layer_2_5_">
	<g id="Shadows">
		<pattern  id="SVGID_25_" xlink:href="#New_Pattern" patternTransform="matrix(-1 0 0 -1 -14754.8203 -15478.9297)">
		</pattern>
		<polygon class="st42" points="1297.3,46.1 1301.1,48.6 1307.5,54.3 1311.7,59.8 1312.7,62.3 1311.6,63.7 1310.7,64.2 1311.7,65.6 
			1313.8,69.6 1315,72.6 1315,75.4 1314.1,77.7 1311.9,79.8 1309.5,81.3 1303.7,83.6 1304.1,77.4 1304.1,72.6 1303.6,66.6 
			1302.6,61.5 1301.6,57.1 1298.5,48.8 		"/>
		<pattern  id="SVGID_26_" xlink:href="#New_Pattern" patternTransform="matrix(-1 0 0 -1 -14754.8203 -15478.9297)">
		</pattern>
		<path class="st43" d="M1299.9,52.7c-0.4-1.2-3.8-4.1-8-4c-4.3,0.1-14.9,4.1-20.6,14.7c2.3-4,4.3-8.1,5.9-12.3v-3.7l-1.8-3
			l-3.5-2.5l-3.1-0.7l-5.2,0.8l-3.1,1.5l1.8-2.5l4.5-4.9l3.1-1.8l2-0.5l0.8,4.9l0.4,1.6l2.2,1.3l3.7,1l4.7,0.6l4.7-0.3l4.9-1.4
			l1.6,1.3l3,5.3L1299.9,52.7z"/>
		<pattern  id="SVGID_27_" xlink:href="#New_Pattern" patternTransform="matrix(-1 0 0 -1 -14754.8203 -15478.9297)">
		</pattern>
		<path class="st44" d="M1260.2,70.8c-0.7,1.1-1.3,20.7,17.6,23.1c-5.7,2.6-23.7-0.4-23.7-0.4l-4-3.6l-1.5-1.4l0.4-8.8l6.6-4.8
			L1260.2,70.8z"/>
	</g>
	<g id="Vector_4_">
		<path class="st45" d="M1303.7,66.8l-0.3,0.1c0-0.1,0-0.2,0-0.3l0.1,0.3L1303.7,66.8z"/>
		<path class="st45" d="M1289.5,42.8l-6.3,0.4l-5-0.6l-1.1-0.5c2.1,0.6,4.4,0.9,6.6,0.9c4,0,7.3-0.6,9.8-1.7l-0.4,0.4L1289.5,42.8z"
			/>
		<path class="st46" d="M1301.3,90.2c-0.2,3.4,0,134.1,0,134.1h-12.8l-19.6-85.9"/>
		<path class="st47" d="M1310.7,64c0.7,0.7,4.9,7.7,4.6,10.4c-0.5,4.2-4.6,6.5-11.5,9.1"/>
		<path class="st47" d="M1296.7,45.8c9.4,5.1,17.3,15.3,15.8,17.1c-0.7,0.9-4.6,2.4-9,3.8"/>
		<path class="st47" d="M1261,5.6c-3.1,3.3-4.3,8-2.6,12.8c1.9,5.6,7.1,9.8,13,11.3"/>
		<path class="st47" d="M1249,79.7c-0.6,5.1-0.4,8.8,0.4,9.6c4.7,4.4,38,8,51.9,0.9c4-2,5.5-33.6-7.8-48.9"/>
		<path class="st47" d="M1271.9,33.5c-4.2,1.3-7.9,4.8-11,9.5"/>
		<polyline class="st47" points="1301.3,224.3 1301.3,230.6 1271.2,230.6 1271.2,227.1 1288.5,224.3 		"/>
		<polyline class="st47" points="1271.2,223.2 1271.2,230.6 1239.6,230.6 1239.6,227.7 1258.8,223.2 		"/>
		<path class="st47" d="M1245.8,60.6c-0.6,0.4-5.7,5.7-6.4,6.8c-1.4-0.9-46.7-27.8-47.5-28.2c-0.7-0.4-2-0.3-2.5-0.1
			c-0.8,0.4-1.1,1.2-0.7,1.8c0.4,0.5,6,4,6,4c-0.5,0.4-2.8,4.6,0.2,6.6c2.1,1.4,4.4,1.8,6.6,1c1.5,1.1,36.9,28.9,43.1,28.9
			c2.9,0,12.7-7.1,17.1-12.5"/>
		<path class="st47" d="M1277.1,48.8c0,8.7-9.6,20.8-13,20.8c-3.3,0-20-8.7-20-10.8s13-17.6,24.1-17.6
			C1272.7,41.2,1277.1,44.6,1277.1,48.8z"/>
		<path class="st47" d="M1278.2,14.1c-6.4,0-18-8.9-18-9.2c0-0.8,2-5,13.4-5c8.2,0,21,4.1,21,17.4c0,6.9,3.8,14.2,3.8,17.5
			c0,5-5.7,8.2-14.8,8.2c-4.4,0-10.9-1.5-10.9-4c0-3.7-5.3-15.6,4.8-18.2"/>
		<path class="st47" d="M1276.5,20.5c0.6,0.3,1.3,0.4,2,0.4c2.3,0,4.2-1.5,4.2-3.4c0-1.9-1.9-3.4-4.2-3.4c-0.4,0-0.9,0.1-1.3,0.2"/>
		<path class="st46" d="M1301.3,90.2c-1.1,0.4-2.2,0.9-3.3,1.4l-4.5,1.5l-0.6,1.7l-25.7,42.1l1.7,1.6"/>
		<path class="st46" d="M1249.4,89.3c4.2,4,31.7,7.3,47.3,2.7l-36,60.1l10.5,71.1h-12.4c0,0-24.1-61.6-24.1-64.4
			S1249.4,89.3,1249.4,89.3z"/>
	</g>
</g>
<line class="st47" x1="1450.4" y1="215.6" x2="1475" y2="167"/>
<line class="st47" x1="1439.3" y1="215.6" x2="1463.8" y2="167.2"/>
<line class="st47" x1="1519" y1="211.8" x2="1496.4" y2="167.1"/>
<path class="st47" d="M1459.3,58.8h-35l25.4,107.9h64.4v-3.8h-47.8l-1-25.2"/>
<path class="st46" d="M1536.7,129.6c5.3,0,31.7,72.1,31.7,74.8s-5.7,5.6-6.6,5.6c-1.3-1.4-26.6-44.3-29.2-47.3
	C1530,159.7,1536.7,129.6,1536.7,129.6z"/>
<path class="st47" d="M1521.9,93.7c1.6-1.5,3.6-2.3,5.7-2.3c4.2,0,7.6,3,7.6,6.8"/>
<path class="st47" d="M1497.8,79.3c2.7,2.9,6.2,7.7,7.8,13.4"/>
<path class="st47" d="M1483.5,63.2c0.9-0.5,1.9-0.7,2.9-0.8c5.4,0,14.5,11.5,14.5,13c0,1.3-4.9,6.2-9.5,7.8"/>
<path class="st47" d="M1492.7,94.6c-1-17-5.4-33.2-17.6-37.5"/>
<path class="st47" d="M1447.8,80.5c-5.5,24.1-1.7,57.6,0.7,59.7c3.9,3.4,37.8,3.7,40,0.3c0.9-1.4,3.9-16.7,4.3-33.8"/>
<path class="st47" d="M1462.8,56.9c-4.7,1.7-8.2,5.8-10.9,11.2"/>
<path class="st47" d="M1468.9,61.9c-3.1,0-6.1-0.8-6.1-2.3V44.3"/>
<path class="st47" d="M1475,51.5v5.5"/>
<path class="st47" d="M1470.1,51.4c1.3,0.5,2.6,0.6,4,0.4c6.6-1.2,10.6-11.5,9.1-23c-0.1-0.5-0.1-0.9-0.2-1.4"/>
<path class="st47" d="M1460.2,37.8c0.6,2.3,1.5,4.5,2.6,6.5"/>
<path class="st47" d="M1457.5,9.5c-1.7-3.5-6.2-9.5-14.8-9.5c-5.9,0-11.8,3.7-19.3,3.7c-5.9,0-11.4-2.8-18.5-2.8
	c-12.6,0-16.5,9.7-16.5,15.7c0,15.2,10.6,21.2,18.5,21.2c12.6,0,14.2-10.2,29.1-10.2c14.6,0,12.6-13.8,15.7-13.8
	c0.7,0,1.5,0.1,2.2,0.3"/>
<path class="st47" d="M1461.1,42c-6.4,0-9.4-7.8-9.4-17.5c0-16.2,12.2-19.4,17.3-19.4c13.9,0,16.8,12.4,16.8,16s-1.9,6.2-2.9,6.3
	c-0.6-4.3-3.5-10.2-3.7-10.3c-1.3,1.5-2.8,2.7-4.5,3.5"/>
<path class="st47" d="M1461.8,30.1c-0.4-0.2-0.9-0.4-1.4-0.4c-1.9,0-3.4,1.8-3.4,4c0,2.2,1.5,4,3.4,4c0.3,0,0.7-0.1,1-0.2"/>
<path class="st47" d="M1492.8,106.7c-4,1.9-7.8,3.4-12.6,3.4c-3.7,0-10.8-2.7-16.1-9.4"/>
<path class="st47" d="M1475,87.9c2.8,2.5,5.2,5.6,7,9.2c3.2-0.7,16.5-4.6,28.2-4.6c1.1,0,4-1.1,5.1-1.1c6.9,0,8.3,4.4,8.3,5.6
	c0,1.3-0.2,1.3-0.4,1.3c-15.2,0-23.1,4.8-30.3,8.3"/>
<path class="st47" d="M1458.3,68.8c-3.9-1.3-7.5-1.3-9.7,1.3c-7.4,8.4,11.3,31.6,14.3,31.3c3-0.3,13.8-13.7,13.9-17.7
	c0-1.4-2.4-4.4-6-7.4"/>
<rect x="1433.4" y="99.5" class="st46" width="166.6" height="6.3"/>
<line class="st47" x1="1442.3" y1="199.8" x2="1442.3" y2="104"/>
<line class="st47" x1="1580.8" y1="199.8" x2="1580.8" y2="104"/>
<line class="st47" x1="1454" y1="219" x2="1454" y2="104"/>
<line class="st47" x1="1593.1" y1="219" x2="1593.1" y2="104"/>
<line class="st47" x1="1510.5" y1="217.6" x2="1484.9" y2="167.1"/>
<rect x="1511.2" y="98.3" class="st46" width="27.7" height="1.2"/>
<polyline class="st47" points="1550.1,74.2 1569.5,74.2 1569.5,22.8 1509.2,22.8 1509.2,74.2 1535.7,74.2 "/>
<polygon class="st47" points="1547.8,64.5 1556.2,99.5 1541.6,99.5 1533.5,64.5 "/>
<path class="st47" d="M1480.3,15.1c-0.2,0.7-0.6,1.4-1,2"/>
<polyline class="st47" points="1518.5,214.7 1516.8,225.9 1537.2,230.6 1523.2,220 1523.9,215.6 "/>
<polyline class="st47" points="1561.8,208.7 1566.7,218.5 1585,205.7 1568.3,208.9 1566.4,205.1 "/>
<path class="st46" d="M1448.6,144.2c0-2-0.3-4.3,0.8-4.8c25-12.1,61.7-13.7,67.4-13.7c5.6,0,22.2,0.7,22.2,6.2
	c0,20-9.5,81.7-11.4,84c-0.9,1.1-8.9,0.4-9.9-0.8c0.1-5.1-2.4-56.1-0.2-62.3c-21,9-45,13.3-51.3,13.3
	C1447.8,166.2,1448.6,146.6,1448.6,144.2z"/>
<g id="Layer_2_6_">
	<g id="vector_1_">
		<path class="st46" d="M1423.3,206.5c-1.8-1.8-28-31.9-29.6-36.5c-1.5-4.2-11-45.5-13.7-54.3l0,0c-1.4,0.2-4.6,0-8.7-0.4
			c-12.8,7.9-10.1,44.8-9.2,46.6c1.1,2.1,45.9,49.5,49.8,51.7C1415.7,213.5,1423.8,209.1,1423.3,206.5z"/>
		<path class="st46" d="M1378.3,115.8c-9.1,0-41.2-5.5-45.8-8.7c0.5,7.1,7.1,47.5,8,53.3c0.9,6.2,15.5,56.1,16.7,57.3
			c1.3,1.2,11.1,1,12.7,0.4c1.7-0.6-3.3-52-3.3-55.7C1366.8,158.7,1378.7,127.3,1378.3,115.8z"/>
		<path class="st48" d="M1333,7.2l-1.6-0.2c0.3,0.7,0.5,1.4,0.7,2.2C1332.3,8.5,1332.6,7.8,1333,7.2z"/>
		<path class="st48" d="M1367.1,167.5c0,0.2,0,0.3,0,0.5l0.3-0.2L1367.1,167.5z"/>
		<path class="st49" d="M1375.6,4.1h0.5c2.2,0,4,1.3,4,2.9v1.5c0,1.6-1.8,2.9-4,2.9h-0.5c-2.2,0-4-1.3-4-2.9V7
			C1371.6,5.4,1373.4,4.1,1375.6,4.1z"/>
		<line class="st49" x1="1359.5" y1="60.6" x2="1359.5" y2="51.8"/>
		<ellipse class="st49" cx="1363.3" cy="38.5" rx="14.1" ry="13.8"/>
		<path class="st49" d="M1341.7,75c-7.1,10.9-11.4,24.9-9.7,31.5c0.9,3.4,41.7,10.2,47.9,9.3c2.2-2.2,11.3-55.2-18.6-55.2
			c-2.3,0-4.5,0.6-6.4,1.6"/>
		<path class="st49" d="M1358.7,78.1c3.7-6.1-6.5-22.1-9.1-22.4c-5.3-0.6-18.3,6.7-17.9,9.8c0.1,1.1,8,9,15.5,12.8"/>
		<path class="st49" d="M1380.5,31.5c-0.4-1.7-0.8-13.8-0.1-15.5c0.6-1.7,2.3-3,3-5.5c0.3-0.9-0.2-3.9-1-4.1
			c-1.8-0.3-1.9,1.2-2.1,2.2c-0.9,3.6-2.7,3-3.6,2.9c-0.8-0.1-3.8-0.5-4.7-0.5c-1,0,1.5,1.4,0.7,3.7c-0.6,1.8-3.3,13.8-3.9,15.8
			C1370.9,30.6,1380.5,31.5,1380.5,31.5z"/>
		<path class="st49" d="M1422.6,207.4l10.8,10l-12.7,13.1l-11.9,0.1l10.8-10.5l-5.9-7.3L1422.6,207.4z"/>
		<polyline class="st49" points="1368.9,217.5 1369.7,230.6 1334.2,230.6 1359.3,222.8 1359.8,217.5 		"/>
		<path class="st49" d="M1333.1,63c-2.4-3-6.3-9.8-6.8-11.6c-0.6-2.1-1.9-33.5-1.9-35.4s-3.4-6.5-3.4-9.3s3.9-6.6,5.9-6.7
			c2.1,1.1,5.1,7.6,5.2,9.2c0.7-3.5,4.3-4.4,5.2-4.4s0.8,5.5-3.1,9.1c0.1,2.7,4.8,29.5,5.6,31c0.6,1.2,5.9,7.5,8.2,10.7"/>
		<path class="st49" d="M1333.1,63c-2.4-3-6.3-9.8-6.8-11.6c-0.6-2.1-1.9-33.5-1.9-35.4s-3.4-6.5-3.4-9.3s3.9-6.6,5.9-6.7
			c2.1,1.1,5.1,7.6,5.2,9.2c0.7-3.5,4.3-4.4,5.2-4.4s0.8,5.5-3.1,9.1c0.1,2.7,4.8,29.5,5.6,31c0.6,1.2,5.9,7.5,8.2,10.7"/>
		<path class="st46" d="M1385.7,44.2c-0.8-11.7-5.8-21.4-18.2-21.4c-10.7,0-16.8,2.9-16.8,7.1s3.7,7.1,9.7,8.8
			c1.3-1.2,3.7-1.4,5.3-0.5c1.6,0.9,1.9,2.7,0.7,3.9c-0.7,0.7-1.8,1.1-3,1.1c-0.2,0-0.3,0-0.5,0c0.4,3,1.2,4,1.2,6.9
			c0,8.6-2,4.3-2,19.1c0,8.9,5.1,13.8,14.5,13.8c11.4,0,17.9-8.8,17.9-13.5C1394.4,63.3,1386.3,52.8,1385.7,44.2z"/>
		<path class="st49" d="M1359.8,39.2c0.8-1.4,3-2.1,5-1.5s2.8,2.2,2,3.6c-0.8,1.4-3,2.1-5,1.5c-0.1,0-0.1,0-0.2-0.1"/>
	</g>
</g>
</svg>
